Coordinates
version=1
nRows=17
nColumns=63
inDegrees=yes

Units are S.I. units (second, meters, Newtons, ...)
If the header above contains a line with 'inDegrees', this indicates whether rotational values are in degrees (yes) or radians (no).

endheader
time	pelvis_tilt	pelvis_list	pelvis_rotation	pelvis_tx	pelvis_ty	pelvis_tz	hip_flexion_r	hip_adduction_r	hip_rotation_r	knee_angle_r	knee_angle_r_beta	ankle_angle_r	subtalar_angle_r	mtp_angle_r	hip_flexion_l	hip_adduction_l	hip_rotation_l	knee_angle_l	knee_angle_l_beta	ankle_angle_l	subtalar_angle_l	mtp_angle_l	L5_S1_Flex_Ext	L5_S1_Lat_Bending	L5_S1_axial_rotation	L4_L5_Flex_Ext	L4_L5_Lat_Bending	L4_L5_axial_rotation	L3_L4_Flex_Ext	L3_L4_Lat_Bending	L3_L4_axial_rotation	L2_L3_Flex_Ext	L2_L3_Lat_Bending	L2_L3_axial_rotation	L1_L2_Flex_Ext	L1_L2_Lat_Bending	L1_L2_axial_rotation	L1_T12_Flex_Ext	L1_T12_Lat_Bending	L1_T12_axial_rotation	Abs_r3	Abs_r2	Abs_r1	Abs_t1	Abs_t2	neck_flexion	neck_bending	neck_rotation	arm_flex_r	arm_add_r	arm_rot_r	elbow_flex_r	pro_sup_r	wrist_flex_r	wrist_dev_r	arm_flex_l	arm_add_l	arm_rot_l	elbow_flex_l	pro_sup_l	wrist_flex_l	wrist_dev_l
1.383333	-3.934307	-1.528251	76.413448	0.372073	0.877377	0.569405	1.515949	-3.924073	5.830759	8.773327	0.153123	34.930624	8.611355	0.000000	-1.476959	0.370894	-14.007847	3.035624	0.052982	35.494987	9.621640	0.000000	-0.026315	-0.274682	1.554583	-0.048869	-0.365328	1.651745	-0.043232	-0.667863	1.651745	-0.030075	-0.667863	1.360260	-0.024436	-0.560132	1.263099	-0.015036	-0.425483	1.165937	-0.187962	-3.107263	8.646125	0.000000	0.000000	27.007098	-4.857445	1.572648	-9.080477	-16.752723	11.574713	125.902573	89.022414	-8.423193	6.104142	-5.013047	-17.555003	14.404143	126.346073	60.268464	-5.966880	19.919927
1.400000	-4.131634	-1.654016	76.322920	0.372170	0.876385	0.569145	1.762600	-4.115686	5.519812	8.985007	0.156818	35.293620	9.026626	0.000000	-1.351378	0.559344	-13.778068	2.964246	0.051736	35.678837	9.438232	0.000000	-0.029529	-0.293703	1.501609	-0.054838	-0.390625	1.595460	-0.048513	-0.714109	1.595460	-0.033749	-0.714109	1.313908	-0.027421	-0.598919	1.220058	-0.016873	-0.454946	1.126207	-0.210922	-3.322425	8.351500	0.000000	0.000000	27.006974	-4.600201	2.097124	-9.101310	-16.549945	12.074268	125.385911	88.703937	-8.462837	6.111299	-5.161681	-17.531050	14.551781	125.831807	58.510508	-6.393307	20.260241
1.416667	-4.334538	-1.777697	76.284621	0.372290	0.875441	0.568787	2.005384	-4.313983	5.074019	9.208253	0.160714	35.689091	9.533968	0.000000	-1.229376	0.753126	-13.437198	2.871737	0.050121	35.836858	9.166143	0.000000	-0.030845	-0.313583	1.423738	-0.057282	-0.417066	1.512722	-0.050675	-0.762446	1.512722	-0.035252	-0.762446	1.245771	-0.028642	-0.639459	1.156787	-0.017625	-0.485740	1.067803	-0.220320	-3.547317	7.918404	0.000000	0.000000	26.987447	-4.314276	2.707097	-9.033216	-16.343896	12.705748	124.842307	88.074159	-8.505607	6.353987	-5.435888	-17.495576	14.469463	125.352939	57.245472	-6.837690	20.504833
1.433333	-4.524509	-1.890086	76.326043	0.372389	0.874583	0.568339	2.224933	-4.501639	4.510121	9.429483	0.164576	36.109624	10.104160	0.000000	-1.123594	0.936298	-12.926738	2.751635	0.048025	35.942006	8.761348	0.000000	-0.032120	-0.332258	1.310616	-0.059650	-0.441903	1.392530	-0.052770	-0.807852	1.392530	-0.036710	-0.807852	1.146789	-0.029826	-0.677540	1.064876	-0.018353	-0.514668	0.982962	-0.229428	-3.758568	7.289256	0.000000	0.000000	26.938546	-4.017128	3.384635	-8.819315	-16.172689	13.535684	124.248996	87.307238	-8.571803	6.754327	-5.877819	-17.448466	14.128524	124.889033	56.501576	-7.185006	20.443129
1.450000	-4.695272	-2.001649	76.434469	0.372504	0.873798	0.567829	2.435303	-4.666623	3.864539	9.646973	0.168371	36.554670	10.721295	0.000000	-1.022035	1.097730	-12.262317	2.609015	0.045536	35.992976	8.229571	0.000000	-0.032003	-0.349750	1.173694	-0.059432	-0.465167	1.247050	-0.052577	-0.850382	1.247050	-0.036576	-0.850382	1.026982	-0.029718	-0.713210	0.953626	-0.018286	-0.541762	0.880270	-0.228592	-3.956440	6.527733	0.000000	0.000000	26.852524	-3.713413	4.076348	-8.501679	-16.015905	14.505260	123.639650	86.412242	-8.634580	7.318163	-6.447877	-17.435552	13.612231	124.450413	56.251521	-7.414371	20.109978
1.466667	-4.822965	-2.105780	76.567368	0.372646	0.873098	0.567269	2.631560	-4.785940	3.169835	9.855210	0.172006	37.011961	11.392279	0.000000	-0.943079	1.216616	-11.504438	2.442567	0.042631	35.983906	7.594385	0.000000	-0.032507	-0.362741	1.034226	-0.060369	-0.482446	1.098865	-0.053406	-0.881969	1.098865	-0.037152	-0.881969	0.904948	-0.030186	-0.739702	0.840309	-0.018574	-0.561886	0.775670	-0.232194	-4.103403	5.752055	0.000000	0.000000	26.728544	-3.461849	4.740412	-8.136041	-15.905795	15.579633	123.070773	85.337638	-8.818989	7.969796	-7.084735	-17.483768	13.047663	124.064944	56.271423	-7.691269	19.683679
1.483333	-4.931157	-2.205257	76.772190	0.372792	0.872476	0.566669	2.813523	-4.883780	2.425403	10.052490	0.175449	37.487131	12.079578	0.000000	-0.869764	1.312761	-10.640859	2.272055	0.039655	35.916307	6.890517	0.000000	-0.033297	-0.375766	0.881007	-0.061837	-0.499769	0.936069	-0.054704	-0.913638	0.936069	-0.038056	-0.913638	0.770881	-0.030920	-0.766263	0.715818	-0.019026	-0.582062	0.660755	-0.237840	-4.250743	4.899894	0.000000	0.000000	26.578591	-3.217710	5.329415	-7.731549	-15.793729	16.702425	122.513491	84.226038	-8.893749	8.670810	-7.839384	-17.611931	12.384351	123.721770	56.598565	-7.766797	18.983722
1.500000	-4.987785	-2.301561	77.037614	0.372918	0.871928	0.566055	2.976560	-4.926207	1.662821	10.236122	0.178654	37.958056	12.744790	0.000000	-0.807805	1.353070	-9.704308	2.103975	0.036721	35.794820	6.134728	0.000000	-0.035705	-0.384386	0.726147	-0.066308	-0.511234	0.771531	-0.058660	-0.934597	0.771531	-0.040808	-0.934597	0.635378	-0.033156	-0.783841	0.589994	-0.020402	-0.595415	0.544610	-0.255039	-4.348256	4.038609	0.000000	0.000000	26.418369	-3.009172	5.846784	-7.313112	-15.713155	17.826110	122.016701	82.966545	-8.915854	9.482043	-8.678678	-17.809013	11.672820	123.438284	57.327718	-7.710082	18.172648
1.516667	-5.015532	-2.391756	77.352466	0.373071	0.871438	0.565437	3.121605	-4.938630	0.882636	10.411155	0.181709	38.431155	13.403004	0.000000	-0.755008	1.359213	-8.747215	1.956154	0.034141	35.626462	5.349850	0.000000	-0.038882	-0.392627	0.567313	-0.072207	-0.522194	0.602770	-0.063879	-0.954633	0.602770	-0.044438	-0.954633	0.496399	-0.036105	-0.800645	0.460942	-0.022217	-0.608179	0.425485	-0.277727	-4.441473	3.155223	0.000000	0.000000	26.271113	-2.803031	6.263615	-6.840860	-15.661640	18.978242	121.516026	81.727782	-8.865783	10.210200	-9.638031	-18.059225	10.850461	123.216185	58.078705	-7.430562	17.258230
1.533333	-5.010082	-2.466184	77.726001	0.373208	0.871030	0.564829	3.228142	-4.919286	0.115965	10.566187	0.184415	38.874935	13.998129	0.000000	-0.716877	1.327839	-7.816834	1.847704	0.032249	35.426094	4.587709	0.000000	-0.043874	-0.399924	0.410142	-0.081478	-0.531899	0.435776	-0.072080	-0.972375	0.435776	-0.050143	-0.972375	0.358874	-0.040741	-0.815525	0.333240	-0.025069	-0.619482	0.307606	-0.313385	-4.524021	2.281085	0.000000	0.000000	26.140626	-2.609579	6.561828	-6.314085	-15.668332	20.089842	121.012249	80.706102	-8.691773	10.834800	-10.654442	-18.360312	9.978353	122.988668	59.077146	-6.940862	16.101689
1.550000	-4.963795	-2.535438	78.092678	0.373366	0.870663	0.564280	3.326094	-4.858907	-0.588805	10.724300	0.187174	39.303623	14.531912	0.000000	-0.688911	1.253245	-6.965701	1.779450	0.031057	35.225773	3.817957	0.000000	-0.048721	-0.404034	0.250533	-0.090480	-0.537365	0.266192	-0.080044	-0.982367	0.266192	-0.055684	-0.982367	0.219217	-0.045243	-0.823905	0.203558	-0.027839	-0.625848	0.187900	-0.348011	-4.570510	1.393391	0.000000	0.000000	26.065918	-2.402630	6.869861	-5.607362	-15.774083	21.264258	120.444348	79.827273	-8.390008	11.342701	-11.790748	-18.630235	8.909123	122.822822	60.273445	-6.309603	15.017605
1.566667	-4.889799	-2.589544	78.491156	0.373494	0.870375	0.563763	3.383687	-4.773026	-1.236477	10.847769	0.189329	39.687212	14.972813	0.000000	-0.675277	1.148357	-6.198884	1.749409	0.030533	35.028731	3.116210	0.000000	-0.054205	-0.407252	0.098224	-0.100663	-0.541645	0.104363	-0.089053	-0.990193	0.104363	-0.061950	-0.990193	0.085946	-0.050334	-0.830468	0.079807	-0.030972	-0.630834	0.073668	-0.387177	-4.606917	0.546290	0.000000	0.000000	26.017933	-2.185843	7.095089	-4.822505	-15.948386	22.361018	119.822155	79.234716	-8.015973	11.645453	-12.904527	-18.908453	7.803858	122.604123	61.665304	-5.495915	13.835079
1.583333	-4.779019	-2.631252	78.887838	0.373632	0.870173	0.563262	3.400902	-4.647946	-1.783763	10.927887	0.190728	40.011940	15.299920	0.000000	-0.677281	1.004533	-5.566471	1.752992	0.030595	34.862048	2.515901	0.000000	-0.060329	-0.408133	-0.034112	-0.112037	-0.542816	-0.036244	-0.099115	-0.992333	-0.036244	-0.068950	-0.992333	-0.029848	-0.056022	-0.832264	-0.027716	-0.034472	-0.632197	-0.025584	-0.430924	-4.616877	-0.189721	0.000000	0.000000	25.993842	-2.013892	7.167615	-4.028421	-16.148596	23.281910	119.159939	78.966046	-7.620294	11.727097	-13.925204	-19.204407	6.767687	122.301095	63.117206	-4.588302	12.533751
1.600000	-4.668768	-2.668677	79.275888	0.373774	0.870036	0.562798	3.407653	-4.518151	-2.218270	10.987120	0.191761	40.293389	15.500455	0.000000	-0.677373	0.858601	-5.055431	1.776098	0.030999	34.730373	2.038615	0.000000	-0.065989	-0.410003	-0.146707	-0.122548	-0.545304	-0.155876	-0.108413	-0.996882	-0.155876	-0.075419	-0.996882	-0.128369	-0.061277	-0.836078	-0.119200	-0.037706	-0.635095	-0.110030	-0.471353	-4.638037	-0.815941	0.000000	0.000000	25.958194	-1.840772	7.188086	-3.264458	-16.309294	23.958807	118.472568	78.991869	-7.188122	11.693641	-14.823464	-19.507101	5.822076	121.942826	64.490141	-3.739906	11.202723
1.616667	-4.537016	-2.699484	79.614751	0.373916	0.869973	0.562375	3.384950	-4.361136	-2.480280	10.987299	0.191765	40.487846	15.549039	0.000000	-0.682596	0.691947	-4.706983	1.819265	0.031752	34.662516	1.710265	0.000000	-0.073749	-0.410029	-0.222494	-0.136959	-0.545339	-0.236399	-0.121162	-0.996944	-0.236399	-0.084287	-0.996944	-0.194682	-0.068483	-0.836131	-0.180776	-0.042140	-0.635135	-0.166870	-0.526780	-4.638330	-1.237442	0.000000	0.000000	25.911804	-1.730336	6.997095	-2.612769	-16.440135	24.309494	117.791778	79.323909	-6.774948	11.451211	-15.520382	-19.791532	5.058113	121.506819	65.774976	-2.984654	9.899806
1.633333	-4.422996	-2.729523	79.957603	0.374063	0.869955	0.561962	3.347540	-4.219105	-2.710868	10.954691	0.191195	40.644127	15.555755	0.000000	-0.681467	0.540118	-4.392287	1.860765	0.032476	34.649404	1.480635	0.000000	-0.081879	-0.412611	-0.272540	-0.152057	-0.548772	-0.289574	-0.134519	-1.003221	-0.289574	-0.093579	-1.003221	-0.238473	-0.076033	-0.841395	-0.221439	-0.046786	-0.639134	-0.204405	-0.584853	-4.667533	-1.515786	0.000000	0.000000	25.806222	-1.625241	6.727426	-2.136656	-16.403400	24.237970	117.145983	79.852799	-6.297319	11.230764	-16.026016	-20.091330	4.500368	121.016773	66.491316	-2.392545	8.515258
1.650000	-4.332757	-2.762969	80.268267	0.374199	0.869965	0.561550	3.302931	-4.093316	-2.796905	10.883073	0.189945	40.726138	15.411462	0.000000	-0.670588	0.412465	-4.168472	1.894958	0.033073	34.689637	1.391202	0.000000	-0.090336	-0.417833	-0.278058	-0.167764	-0.555718	-0.295436	-0.148414	-1.015920	-0.295436	-0.103245	-1.015920	-0.243301	-0.083886	-0.852046	-0.225922	-0.051618	-0.647224	-0.208543	-0.645263	-4.726613	-1.546474	0.000000	0.000000	25.647391	-1.571537	6.245831	-1.921512	-16.208255	23.698681	116.568176	80.555664	-5.874337	10.920156	-16.271654	-20.393659	4.207106	120.472184	67.074958	-2.046867	7.224546
